<svg width="32" height="32" viewBox="0 0 32 32" fill="none" xmlns="http://www.w3.org/2000/svg">
<path d="M0 2C0 0.89543 0.895431 0 2 0H30C31.1046 0 32 0.895431 32 2V30C32 31.1046 31.1046 32 30 32H2C0.89543 32 0 31.1046 0 30V2Z" fill="#F1F4F7"/>
<path d="M20.8023 12.035L16.3841 10.1941C16.2489 10.1366 16.1042 10.1089 15.9597 10.1089C15.8152 10.1089 15.6707 10.1364 15.5349 10.1939L11.1169 12.035C10.7055 12.2046 10.4355 12.6078 10.4355 13.0335C10.4355 18.9774 14.794 21.8907 15.956 21.8907C17.0905 21.8907 21.4812 19.0211 21.4812 13.0335C21.4812 12.6078 21.2119 12.2046 20.8023 12.035ZM15.9583 20.7861C13.7147 19.8519 11.5401 16.9501 11.5401 13.0542L15.9583 11.2133L20.3766 13.0542C20.3766 17.0537 18.1122 19.8887 15.9583 20.7861ZM14.672 15.7926C14.5846 15.6845 14.4419 15.6108 14.3015 15.6108C13.986 15.6108 13.7492 15.8688 13.7492 16.1631C13.7492 16.3242 13.8022 16.4669 13.9103 16.5543L15.0149 17.6589C15.1184 17.7831 15.2611 17.8199 15.4061 17.8199C15.4658 17.8199 15.6698 17.8085 15.8253 17.6272L18.0345 15.0499C18.1238 14.9457 18.1675 14.8177 18.1675 14.6905C18.1675 14.5201 18.0343 14.1384 17.6157 14.1384C17.4602 14.1384 17.3055 14.2036 17.1959 14.3308L15.3762 16.4761L14.672 15.7926Z" fill="#0038FF"/>
</svg>
